<svg fill="#c7a66d" xmlns="http://www.w3.org/2000/svg" viewBox="0 0 512.003 512.003" xml:space="preserve"><circle cx="445.898" cy="121.713" r="27.095"/><path d="M481.062 157.444H466.46l-10.008 26.147-5.398 14.103 3.643-17.162a5.15 5.15 0 0 0-.523-3.542l-5.003-9.099 4.447-8.09c.663-1.205-.21-2.684-1.586-2.684h-12.207c-1.374 0-2.25 1.477-1.586 2.684l4.448 8.09-5.022 9.133a5.14 5.14 0 0 0-.538 3.475l3.185 17.194c-5.412-13.881-2.956-8.732-15.245-40.25h-14.326c-14.102 0-26.06 9.535-29.754 22.495 2.957 6.392.316 1.129 24.662 68.288l.301-59.87a2.593 2.593 0 0 1 5.187.013v74.961c1.72 4.722 2.78 7.622 2.826 7.749a21.36 21.36 0 0 1-2.82 19.89v117.158c0 8.664 7.023 15.688 15.688 15.688s15.688-7.024 15.688-15.688V282.731h6.774v125.398c0 8.664 7.023 15.688 15.688 15.688s15.688-7.024 15.688-15.688c0-58.681-.27-159.024-.284-219.834a2.735 2.735 0 0 1 5.47-.014l-.088 96.046c-.007 7.221 5.842 13.079 13.062 13.086h.011c7.215 0 13.067-5.845 13.074-13.061l.088-96.124c-.086-16.975-13.965-30.784-30.94-30.784"/><circle cx="86.519" cy="115.254" r="27.699"/><path d="m120.46 281.591.494-98.296c.045-8.944 3.039-17.21 8.051-23.879-5.33-5.06-11.78-7.634-19.329-7.634H63.371c-14.304 0-24.7 9.149-30.901 27.191C22.86 206.937 1.038 266.641.818 267.24c-2.534 6.932 1.031 14.606 7.962 17.141 6.936 2.534 14.607-1.034 17.141-7.962.186-.509 15.856-43.382 26.56-73.683-.718 5.871 1.532-6.392-18.982 99.522-.89 4.596 2.653 8.845 7.289 8.845h10.198v96.944c0 8.857 7.18 16.037 16.037 16.037s16.037-7.18 16.037-16.037v-96.944h6.924v96.944c0 8.857 7.18 16.037 16.037 16.037s16.037-7.18 16.037-16.037v-96.944h10.198a7.41 7.41 0 0 0 7.41-7.658c-10.841-1.336-19.263-10.565-19.206-21.854m243.71-160.238c-3.846-18.95-20.673-32.704-40.009-32.704s-36.162 13.754-40.009 32.704l-9.505 46.823c3.439-4.099 7.166-6.977 10.94-8.957l7.327-36.087c3.004-14.8 16.147-25.544 31.248-25.544 15.103 0 28.245 10.742 31.25 25.544l7.325 36.087c3.773 1.981 7.501 4.858 10.94 8.957z"/><path d="M312.265 163.811c1.411 5.403 6.28 9.205 11.896 9.205 5.712 0 10.515-3.919 11.896-9.205z"/><path d="M405.586 272.982c-7.597-20.8-22.633-62.259-29.836-83.218-5.043-14.674-13.97-25.952-29.493-25.952h-2.963c-1.493 9.228-9.493 16.305-19.135 16.305-9.39 0-17.609-6.87-19.135-16.305h-2.962c-15.553 0-24.476 11.358-29.493 25.952-2.359 6.864-5.348 15.317-7.773 22.13l-.144-28.556c-.087-17.372-14.292-31.504-31.663-31.504h-11.814l-24.101 64.382-24.101-64.382h-11.814c-17.372 0-31.575 14.133-31.663 31.504l-.494 98.296c-.037 7.389 5.923 13.409 13.312 13.447h.069c7.358 0 13.341-5.947 13.378-13.312l.494-98.296a2.691 2.691 0 0 1 5.384.015c-.009 47.322-.142 122.922-.142 224.905 0 8.867 7.188 16.055 16.055 16.055s16.056-7.188 16.056-16.055V280.056h6.933v128.335c0 8.867 7.188 16.055 16.056 16.055 8.867 0 16.055-7.188 16.055-16.055 0-211.982-.139-90.374-.142-224.906a2.692 2.692 0 0 1 5.384-.014l.386 76.85.108 21.447c.037 7.367 6.019 13.312 13.378 13.312h.069c5.728-.029 9.801-4.022 12.466-8.728 1.082-1.911 12.366-31.819 25.099-67.505l2.897 7.556c-10.944 18.087-18.136 37.855-21.394 58.832l-14.684 94.549c-1.805 11.625 7.215 22.095 18.918 22.095h15.106v6.511c0 8.453 6.852 15.306 15.306 15.306s15.307-6.852 15.307-15.306v-6.511h6.609v6.511c0 8.453 6.852 15.306 15.307 15.306 8.453 0 15.306-6.852 15.306-15.306v-6.511h15.106c11.733 0 20.723-10.472 18.918-22.095l-14.684-94.549c-3.258-20.978-10.449-40.746-21.394-58.832l2.898-7.557c7.24 20.361 17.153 47.712 23.015 63.742l.065.177c2.407 6.574 9.714 10.032 16.36 7.599 5.852-2.14 10.411-8.656 7.224-17.382M224.82 196.369h-12.419v-5.836h12.419zm75.839 3.528a14.4 14.4 0 0 1 10.37-4.395c4.069 0 7.737 1.688 10.362 4.395a14.5 14.5 0 0 1 2.77 4.03 14.5 14.5 0 0 1 2.77-4.03 14.38 14.38 0 0 1 10.362-4.395 14.4 14.4 0 0 1 10.37 4.395 12.77 12.77 0 0 1 2.744 13.506l-4.078 10.524h-44.332l-4.078-10.524a12.76 12.76 0 0 1 2.74-13.506m66.934 86.865 14.684 94.549c.87 5.606-3.469 10.628-9.095 10.628h-98.046c-5.604 0-9.965-5.028-9.095-10.628l14.684-94.549a151.8 151.8 0 0 1 18.714-52.896h49.44a151.8 151.8 0 0 1 18.714 52.896M324.16 102.515c-14.6 0-26.435 11.835-26.435 26.435 0 14.645 11.906 26.435 26.435 26.435 14.524 0 26.435-11.783 26.435-26.435 0-14.6-11.835-26.435-26.435-26.435"/><path d="m207.544 145.389-.006.002-10.462 5.753-10.462-5.753-.006-.002c-1.294-.705-2.875.233-2.875 1.706v13.104c0 1.475 1.586 2.415 2.88 1.703l10.462-5.753 10.462 5.753c1.294.711 2.881-.225 2.881-1.703v-13.104c.002-1.48-1.585-2.408-2.874-1.706"/><circle cx="197.075" cy="170.471" r="3.648"/><circle cx="197.075" cy="187.973" r="3.648"/><circle cx="197.075" cy="115.254" r="27.028"/></svg>