<?xml version="1.0" encoding="iso-8859-1"?>
<!-- Uploaded to: SVG Repo, www.svgrepo.com, Generator: SVG Repo Mixer Tools -->
<svg fill="#c7a66b" version="1.1" id="Layer_1" xmlns="http://www.w3.org/2000/svg" xmlns:xlink="http://www.w3.org/1999/xlink" 
	 viewBox="0 0 512 512" xml:space="preserve">
<g>
	<g>
		<path d="M23.039,83.134l138.828,123.292c14.424-17.303,36.126-28.339,60.363-28.339c11.805,0,23.328,2.667,33.771,7.641
			c10.444-4.974,21.966-7.641,33.771-7.641c24.237,0,45.939,11.036,60.364,28.339L488.961,83.134H23.039z"/>
	</g>
</g>
<g>
	<g>
		<path d="M346.086,312.47c-1.657,2.088-3.381,4.175-5.222,6.26c-12.091,13.689-26.08,25.066-36.916,33.448
			c-12.347,9.55-29.063,20.417-29.768,20.874L256,384.852l-18.179-11.799c-0.706-0.458-17.42-11.325-29.768-20.875
			c-10.837-8.382-24.825-19.758-36.916-33.448c-1.841-2.085-3.565-4.172-5.222-6.26L22.622,428.866h466.756L346.086,312.47z"/>
	</g>
</g>
<g>
	<g>
		<path d="M143.656,256.66c0-6.75,0.857-13.303,2.465-19.558L0,107.332v296.89l148.795-120.866
			C145.382,274.424,143.656,265.51,143.656,256.66z"/>
	</g>
</g>
<g>
	<g>
		<path d="M365.879,237.102c1.608,6.255,2.465,12.808,2.465,19.558c0,8.851-1.726,17.764-5.139,26.695L512,404.222v-296.89
			L365.879,237.102z"/>
	</g>
</g>
<g>
	<g>
		<path d="M289.771,211.478c-13.436,0-25.494,5.87-33.771,15.18c-8.277-9.31-20.335-15.18-33.771-15.18
			c-24.953,0-45.182,20.228-45.182,45.182c0,28.05,33.833,55.491,51.434,69.104C239.879,334.58,256,345.043,256,345.043
			s16.121-10.464,27.519-19.279c17.601-13.614,51.434-41.056,51.434-69.104C334.953,231.707,314.724,211.478,289.771,211.478z"/>
	</g>
</g>
</svg>