<?xml version="1.0" encoding="iso-8859-1"?>
<!-- Uploaded to: SVG Repo, www.svgrepo.com, Generator: SVG Repo Mixer Tools -->
<!DOCTYPE svg PUBLIC "-//W3C//DTD SVG 1.1//EN" "http://www.w3.org/Graphics/SVG/1.1/DTD/svg11.dtd">
<svg fill="#c7a66d" version="1.1" id="Capa_1" xmlns="http://www.w3.org/2000/svg" xmlns:xlink="http://www.w3.org/1999/xlink" 
	 viewBox="0 0 362.605 362.605" xml:space="preserve">
<path d="M354.758,87.781L297.5,59.251c-0.89-6.108-0.036-12.718,0.81-19.19c1.412-10.812,2.872-21.993-4.43-30.31
	c-5.701-6.494-15.337-9.519-30.325-9.519c-23.103,0-40.576,6.841-53.438,15.477l-16.519-8.231c-3.4-1.694-7.766-2.626-12.295-2.626
	s-8.896,0.933-12.295,2.626L150.3,16.8c-13-9.145-30.961-16.568-55.03-16.568c-12.492,0-21.349,3-27.078,9.172
	c-8.687,9.358-7.654,23.213-6.654,36.611c0.367,4.926,0.733,9.919,0.647,14.69L7.848,87.781C2.861,90.265,0,94.337,0,98.952
	c0,1.724,0.4,3.371,1.159,4.889v153.912c0,8.296,5.549,17.439,12.909,21.27l154.902,80.606c3.516,1.83,7.924,2.744,12.333,2.744
	c4.408,0,8.818-0.915,12.333-2.744l154.901-80.607c7.359-3.83,12.909-12.974,12.909-21.27V103.841
	c0.76-1.518,1.159-3.165,1.159-4.889C362.605,94.337,359.745,90.265,354.758,87.781z M158.079,77.09
	c0-10.858,9.57-19.692,21.334-19.692s21.334,8.833,21.334,19.692s-9.57,19.692-21.334,19.692S158.079,87.948,158.079,77.09z
	 M307.349,80.917l36.197,18.036l-35.963,17.919c0.043-0.078,0.096-0.15,0.138-0.229C313.197,106.606,312.988,94.215,307.349,80.917z
	 M282.608,19.647c2.821,3.213,1.853,10.625,0.829,18.471c-1.515,11.602-3.401,26.042,4.945,39.001
	c8.314,12.909,10.506,24.396,6.171,32.343c-4.637,8.501-16.618,13.377-32.873,13.377c-6.334,0-13.167-0.749-20.308-2.225
	c-16.268-3.363-28.535-10.383-37.273-18.1c7.157-6.34,11.647-15.389,11.647-25.424c0-12.406-6.86-23.306-17.144-29.44
	c1.493-2.101,3.155-4.229,5.004-6.35c10.371-11.892,29.19-26.068,59.949-26.068C276.099,15.232,280.84,17.633,282.608,19.647z
	 M175.697,20.905c1.323-0.659,3.418-1.052,5.605-1.052s4.283,0.394,5.606,1.052l10.435,5.199c-1.836,1.796-3.516,3.587-5.042,5.337
	c-3.239,3.715-6.026,7.5-8.417,11.229c-1.467-0.173-2.957-0.272-4.472-0.272c-1.515,0-3.005,0.099-4.472,0.272
	c-2.391-3.73-5.177-7.515-8.417-11.229c-1.17-1.342-2.43-2.708-3.781-4.081L175.697,20.905z M76.497,44.901
	c-0.795-10.66-1.546-20.729,2.69-25.292c2.696-2.904,8.107-4.377,16.083-4.377c30.759,0,49.578,14.176,59.949,26.068
	c1.849,2.121,3.511,4.249,5.004,6.35c-10.284,6.133-17.144,17.033-17.144,29.44c0,10.035,4.49,19.084,11.647,25.424
	c-8.739,7.716-21.006,14.737-37.273,18.1c-9.756,2.017-18.705,3.04-26.597,3.04c-14.195,0-24.193-3.404-27.43-9.338
	c-3.168-5.809-0.676-15.587,7.018-27.533C78.667,74.011,77.514,58.545,76.497,44.901z M56.958,80.069
	c-7.849,12.611-11.044,23.669-9.547,33.011L19.059,98.953L56.958,80.069z M62.372,287.249l-41.38-21.533
	c-2.394-1.246-4.833-5.265-4.833-7.963V114.267l46.213,23.026V287.249z M173.803,345.235l-96.431-50.18V144.768l91.635,45.659
	c1.443,0.719,3.066,1.292,4.795,1.723V345.235z M181.303,178.054c-2.187,0-4.283-0.394-5.605-1.053l-77.46-38.596
	c6.927-0.44,14.377-1.474,22.253-3.102c21.958-4.54,36.778-14.479,46.11-23.266l3.848-1.345c2.871,0.699,5.869,1.09,8.965,1.09
	c2.793,0,5.511-0.309,8.125-0.882l5.572,1.948c9.374,8.581,23.938,18.055,45.225,22.456c8.139,1.683,15.993,2.536,23.345,2.536
	c0.933,0,1.843-0.034,2.757-0.061l0.7,0.245l-78.229,38.979C185.586,177.66,183.49,178.054,181.303,178.054z M280.018,297.769
	l-91.215,47.466V192.15c1.729-0.432,3.353-1.004,4.795-1.723l86.42-43.06V297.769z M346.446,257.753
	c0,2.699-2.439,6.717-4.833,7.963l-46.595,24.247V139.893l51.428-25.625V257.753z"/>
</svg>